<?xml version="1.0" encoding="utf-8"?>
<!-- Generator: Adobe Illustrator 16.0.0, SVG Export Plug-In . SVG Version: 6.00 Build 0)  -->
<!DOCTYPE svg PUBLIC "-//W3C//DTD SVG 1.1//EN" "http://www.w3.org/Graphics/SVG/1.1/DTD/svg11.dtd">
<svg version="1.1" id="Layer_1" xmlns="http://www.w3.org/2000/svg" xmlns:xlink="http://www.w3.org/1999/xlink" x="0px" y="0px"
	 width="860px" height="335px" viewBox="0 0 860 335" enable-background="new 0 0 860 335" xml:space="preserve">
<g>
	<path fill="#FFFFFF" stroke="#FFFFFF" stroke-miterlimit="10" d="M58.521,145.24v11.466H45.052v-12.194
		c0-11.466-4.55-18.383-14.924-18.383c-10.192,0-14.925,6.917-14.925,18.383v67.342c0,11.467,4.732,18.383,14.925,18.383
		c10.375,0,14.924-6.916,14.924-18.383v-16.562h13.469v15.835c0,19.293-9.101,32.033-28.757,32.033
		c-19.475,0-28.575-12.74-28.575-32.033V145.24c0-19.293,9.1-32.033,28.575-32.033C49.42,113.207,58.521,125.947,58.521,145.24z"/>
	<path fill="#FFFFFF" stroke="#FFFFFF" stroke-miterlimit="10" d="M85.817,216.223l-4.914,25.663H67.798l24.389-127.405h20.566
		l24.389,127.405h-14.197l-4.914-25.663H85.817z M87.637,204.028h28.393l-14.379-73.531L87.637,204.028z"/>
	<path fill="#FFFFFF" stroke="#FFFFFF" stroke-miterlimit="10" d="M203.39,145.058v3.458h-13.468v-4.186
		c0-11.466-4.368-18.201-14.561-18.201s-14.561,6.734-14.561,18.019c0,28.575,42.771,31.305,42.771,67.161
		c0,19.293-9.282,31.852-28.757,31.852c-19.475,0-28.575-12.559-28.575-31.852v-7.28h13.287v8.009c0,11.466,4.732,18.2,14.924,18.2
		s14.924-6.734,14.924-18.2c0-28.394-42.589-31.123-42.589-66.979c0-19.657,9.1-31.851,28.211-31.851
		C194.29,113.207,203.39,125.766,203.39,145.058z"/>
	<path fill="#FFFFFF" stroke="#FFFFFF" stroke-miterlimit="10" d="M230.323,216.223l-4.914,25.663h-13.104l24.389-127.405h20.567
		l24.389,127.405h-14.197l-4.914-25.663H230.323z M232.144,204.028h28.393l-14.378-73.531L232.144,204.028z"/>
	<path fill="#FFFFFF" stroke="#FFFFFF" stroke-miterlimit="10" d="M377.198,145.24v11.466h-13.469v-12.194
		c0-11.466-4.55-18.383-14.925-18.383c-10.192,0-14.924,6.917-14.924,18.383v67.342c0,11.467,4.731,18.383,14.924,18.383
		c10.375,0,14.925-6.916,14.925-18.383v-16.562h13.469v15.835c0,19.293-9.101,32.033-28.757,32.033
		c-19.476,0-28.575-12.74-28.575-32.033V145.24c0-19.293,9.1-32.033,28.575-32.033C368.098,113.207,377.198,125.947,377.198,145.24z
		"/>
	<path fill="#FFFFFF" stroke="#FFFFFF" stroke-miterlimit="10" d="M389.024,145.24c0-19.475,9.646-32.033,29.121-32.033
		c19.656,0,29.303,12.559,29.303,32.033v65.887c0,19.293-9.646,32.033-29.303,32.033c-19.475,0-29.121-12.74-29.121-32.033V145.24z
		 M403.039,211.854c0,11.648,4.914,18.383,15.106,18.383c10.374,0,15.106-6.734,15.106-18.383v-67.342
		c0-11.466-4.732-18.383-15.106-18.383c-10.192,0-15.106,6.917-15.106,18.383V211.854z"/>
	<path fill="#FFFFFF" stroke="#FFFFFF" stroke-miterlimit="10" d="M489.306,114.481c20.021,0,28.394,10.192,28.394,29.121v10.375
		c0,14.015-4.914,22.751-15.835,26.209c11.648,3.458,16.017,12.922,16.017,26.572v19.84c0,5.642,0.183,10.92,2.549,15.288h-14.379
		c-1.638-3.64-2.366-6.916-2.366-15.471v-20.021c0-14.379-6.734-18.929-18.564-18.929h-10.011v54.42h-14.196V114.481H489.306z
		 M485.666,174.543c11.284,0,18.019-3.64,18.019-17.473v-12.194c0-11.466-4.186-17.473-14.742-17.473h-13.833v47.14H485.666z"/>
	<path fill="#FFFFFF" stroke="#FFFFFF" stroke-miterlimit="10" d="M561.195,114.481c19.839,0,27.665,9.464,27.665,28.211v6.006
		c0,13.469-3.822,21.841-14.925,25.299c12.377,3.458,17.108,13.286,17.108,27.302v10.738c0,19.11-9.282,29.849-29.121,29.849H532.62
		V114.481H561.195z M557.737,168.537c11.284,0,17.108-3.64,17.108-16.927v-7.462c0-11.284-3.822-16.745-14.015-16.745h-14.015
		v41.134H557.737z M561.923,228.963c10.375,0,15.107-5.46,15.107-17.29v-11.284c0-14.197-5.643-18.93-17.837-18.93h-12.377v47.504
		H561.923z"/>
	<path fill="#FFFFFF" stroke="#FFFFFF" stroke-miterlimit="10" d="M649.283,170.903v12.74H618.16v45.319h38.222v12.923h-52.418
		V114.481h52.418v12.922H618.16v43.5H649.283z"/>
	<path fill="#FFFFFF" stroke="#FFFFFF" stroke-miterlimit="10" d="M669.481,241.886V114.481h14.196v114.482h36.401v12.923H669.481z"
		/>
	<path fill="#FFFFFF" stroke="#FFFFFF" stroke-miterlimit="10" d="M730.813,241.886V114.481h14.196v114.482h36.401v12.923H730.813z"
		/>
	<path fill="#FFFFFF" stroke="#FFFFFF" stroke-miterlimit="10" d="M806.524,216.223l-4.914,25.663h-13.105l24.39-127.405h20.566
		l24.389,127.405h-14.196l-4.914-25.663H806.524z M808.344,204.028h28.394l-14.379-73.531L808.344,204.028z"/>
</g>
<line fill="#FFFFFF" stroke="#FFFFFF" stroke-width="5" stroke-miterlimit="10" x1="12.323" y1="258.304" x2="847.646" y2="258.304"/>
<g>
</g>
<g>
</g>
<g>
</g>
<g>
</g>
<g>
</g>
<g>
</g>
</svg>
